<svg width="22" height="24" viewBox="0 0 22 24" xmlns="http://www.w3.org/2000/svg">
<path d="M10.984 0.486328C10.7191 0.490468 10.4667 0.599528 10.2821 0.789572C10.0976 0.979616 9.99597 1.23512 9.99959 1.5V2H4.49959C4.36713 1.9982 4.23563 2.02274 4.11273 2.07219C3.98982 2.12164 3.87797 2.19501 3.78366 2.28805C3.68935 2.38108 3.61447 2.49193 3.56336 2.61415C3.51224 2.73637 3.48592 2.86752 3.48592 3H1.99959C1.86708 2.99813 1.73552 3.02261 1.61255 3.07202C1.48958 3.12143 1.37766 3.1948 1.28329 3.28784C1.18892 3.38088 1.11399 3.49176 1.06284 3.61401C1.01169 3.73627 0.985352 3.86747 0.985352 4C0.985352 4.13253 1.01169 4.26373 1.06284 4.38599C1.11399 4.50824 1.18892 4.61912 1.28329 4.71216C1.37766 4.8052 1.48958 4.87857 1.61255 4.92798C1.73552 4.97739 1.86708 5.00187 1.99959 5H19.9996C20.1321 5.00187 20.2637 4.97739 20.3866 4.92798C20.5096 4.87857 20.6215 4.8052 20.7159 4.71216C20.8103 4.61912 20.8852 4.50824 20.9363 4.38599C20.9875 4.26373 21.0138 4.13253 21.0138 4C21.0138 3.86747 20.9875 3.73627 20.9363 3.61401C20.8852 3.49176 20.8103 3.38088 20.7159 3.28784C20.6215 3.1948 20.5096 3.12143 20.3866 3.07202C20.2637 3.02261 20.1321 2.99813 19.9996 3H18.5133C18.5133 2.86752 18.4869 2.73637 18.4358 2.61415C18.3847 2.49193 18.3098 2.38108 18.2155 2.28805C18.1212 2.19501 18.0094 2.12164 17.8865 2.07219C17.7636 2.02274 17.6321 1.9982 17.4996 2H11.9996V1.5C12.0014 1.36621 11.9764 1.23341 11.926 1.10947C11.8756 0.985533 11.8008 0.872969 11.7061 0.778448C11.6114 0.683927 11.4987 0.60937 11.3746 0.559193C11.2506 0.509016 11.1178 0.484238 10.984 0.486328ZM1.99959 7L3.79256 22.2344C3.91056 23.2414 4.76294 24 5.77694 24H16.2222C17.2362 24 18.0876 23.2414 18.2066 22.2344L19.9996 7H1.99959Z" />
</svg>
