<svg width="40" height="40" viewBox="0 0 40 40" xmlns="http://www.w3.org/2000/svg">
<g clip-path="url(#clip0_3_141)">
<path d="M4.55659 18.7894C4.55659 13.9681 6.7484 9.51035 10.5688 6.55966C11.2998 5.99502 11.4347 4.94455 10.8701 4.21302C10.305 3.48195 9.25498 3.34612 8.52298 3.91169C3.87606 7.50119 1.21094 12.9237 1.21094 18.7894C1.21094 21.0887 1.62121 23.3338 2.43062 25.4631C2.68466 26.1311 3.32023 26.5418 3.99474 26.5418C4.19222 26.5418 4.39295 26.5066 4.58858 26.4324C5.45223 26.1042 5.88614 25.1381 5.55793 24.2744C4.89362 22.5263 4.55659 20.6808 4.55659 18.7894Z"/>
<path d="M20 0C17.9802 0 15.9928 0.319407 14.0926 0.948485C13.215 1.23869 12.7398 2.18532 13.0301 3.06241C13.3203 3.9395 14.2669 4.41421 15.144 4.12493C16.7048 3.60804 18.339 3.34612 20.0004 3.34612C28.5155 3.34612 35.4432 10.2739 35.4432 18.7894C35.4432 27.3053 28.5155 34.234 20.0004 34.234C18.0191 34.234 16.0994 33.8557 14.304 33.1413L16.3164 32.8734C17.2324 32.751 17.8759 31.9101 17.7539 30.994C17.6315 30.0775 16.7846 29.4364 15.8746 29.5565L9.4475 30.4132C8.53147 30.5356 7.88802 31.3765 8.00994 32.2925C8.02107 32.3755 8.04239 32.4538 8.06465 32.5322C8.0716 32.7811 8.12908 33.0315 8.251 33.2637L11.3218 39.1053C11.6212 39.675 12.2021 40.0005 12.8038 40.0005C13.0662 40.0005 13.3328 39.9383 13.5808 39.8081C14.399 39.3779 14.7133 38.3668 14.2836 37.5491L13.7403 36.5162C15.729 37.219 17.8364 37.5801 20 37.5801C30.3601 37.5801 38.7884 29.1508 38.7884 18.7898C38.7884 8.42881 30.3596 0 20 0Z"/>
<path d="M19.2271 16.9452C19.2271 15.516 18.0325 14.5675 16.5333 14.5675C15.4555 14.5675 14.5886 14.8369 13.9326 15.1646C13.7569 15.2583 13.6748 15.3992 13.6748 15.5985C13.6748 15.8563 13.8621 16.0547 14.1199 16.0547C14.2135 16.0547 14.3192 16.0079 14.3424 15.9963C14.8695 15.7622 15.5491 15.5749 16.3455 15.5749C17.7043 15.5749 18.1961 16.1956 18.1961 17.0273C18.1961 18.9368 13.5107 19.78 13.5107 22.2518C13.5107 22.6153 13.7685 22.861 14.1315 22.861H18.6532C18.9342 22.861 19.1571 22.6501 19.1571 22.3687C19.1571 22.0877 18.9346 21.8652 18.6532 21.8652H14.5765C15.2093 20.4944 19.2271 19.3582 19.2271 16.9452Z"/>
<path d="M25.177 22.9189C25.47 22.9189 25.7157 22.6848 25.7157 22.3918V20.7985H26.6062C26.8755 20.7985 27.086 20.5992 27.086 20.3298C27.086 20.0605 26.8755 19.8496 26.6062 19.8496H25.7157V15.3042C25.7157 14.9291 25.4463 14.625 25.036 14.625H24.8019C24.5674 14.625 24.3453 14.7418 24.216 14.9064L20.5375 19.6039C20.4559 19.71 20.3975 19.8737 20.3975 20.0257V20.1314C20.3975 20.5065 20.702 20.799 21.0771 20.799H24.6494V22.3923C24.6494 22.6853 24.884 22.9189 25.177 22.9189ZM21.5337 19.85L24.6494 15.8322V19.85H21.5337Z"/>
<path d="M13.0535 11.246C14.9055 9.62948 17.2809 8.73941 19.7425 8.73941C25.3542 8.73941 29.9195 13.3057 29.9195 18.9178C29.9195 19.3795 30.2945 19.7545 30.7563 19.7545C31.218 19.7545 31.593 19.3795 31.593 18.9178C31.593 12.3831 26.2767 7.06681 19.7425 7.06681C16.8762 7.06681 14.1105 8.10338 11.9534 9.98597C11.6053 10.2896 11.5696 10.8181 11.8732 11.1662C12.1774 11.5135 12.7058 11.5496 13.0535 11.246Z"/>
</g>
<defs>
<clipPath id="clip0_3_141">
<rect width="40" height="40" />
</clipPath>
</defs>
</svg>
